<svg xmlns="http://www.w3.org/2000/svg" viewBox="0 0 211.46 87.13">
  <title>Fichier 1</title>
  <g>
    <g>
      <path d="M122.34,6a2.26,2.26,0,0,0,2.24-2.42h1.11a3.35,3.35,0,1,1-6.7,0A3.35,3.35,0,0,1,122.34.15a3.26,3.26,0,0,1,2.57,1.24l-.75.76a2.12,2.12,0,0,0-1.82-1,2.28,2.28,0,0,0-2.25,2.42A2.28,2.28,0,0,0,122.34,6Z" fill="#1f1a33"/>
      <path d="M127.06.21h4.24v1h-3.16V3.06h1.54v1h-1.54V6h3.22V7h-4.3Z" fill="#1f1a33"/>
      <path d="M132.78.21H134l2.18,4.66V.21h1.08V7H136l-2.17-4.66V7h-1.09Z" fill="#1f1a33"/>
      <path d="M138.53.21h4.16v1h-1.54V7h-1.09V1.24h-1.53Z" fill="#1f1a33"/>
      <path d="M146.19.21a1.84,1.84,0,0,1,1.94,1.94A1.84,1.84,0,0,1,146.59,4L148.13,7h-1.24l-1.45-2.9h-.15V7H144.2V.21Zm-.9,2.85h.91a.82.82,0,0,0,.87-.91.82.82,0,0,0-.87-.91h-.91Z" fill="#1f1a33"/>
      <path d="M149.61.21h4.25v1h-3.17V3.06h1.54v1h-1.54V6h3.22V7h-4.3Z" fill="#1f1a33"/>
      <path d="M121.34,16.21a3.18,3.18,0,0,1,3.34,3.39A3.18,3.18,0,0,1,121.34,23h-2V16.21Zm-.9,1V22h.93a2.16,2.16,0,0,0,2.21-2.36,2.16,2.16,0,0,0-2.21-2.36Z" fill="#1f1a33"/>
      <path d="M125.82,18.27,127,16.21h1.16l-1.49,2.57Z" fill="#1f1a33"/>
      <path d="M129.41,16.21h4.24v1h-3.16v1.82H132v1h-1.54V22h3.22v1h-4.3Zm1-1.61,2.33-.63.27.94-2.34.62Z" fill="#1f1a33"/>
      <path d="M134.85,16.21H139v1h-1.54V23h-1.08V17.24h-1.54Z" fill="#1f1a33"/>
      <path d="M144.85,16.21v4.6a2.21,2.21,0,1,1-4.41,0v-4.6h1.08v4.65a1.13,1.13,0,1,0,2.25,0V16.21Z" fill="#1f1a33"/>
      <path d="M148.51,16.21a3.18,3.18,0,0,1,3.33,3.39A3.17,3.17,0,0,1,148.51,23h-2V16.21Zm-.9,1V22h.93a2.16,2.16,0,0,0,2.2-2.36,2.16,2.16,0,0,0-2.2-2.36Z" fill="#1f1a33"/>
      <path d="M153.21,16.21h4.24v1h-3.16v1.82h1.54v1h-1.54V22h3.22v1h-4.3Z" fill="#1f1a33"/>
      <path d="M161.57,18.92A1.9,1.9,0,0,1,163,20.84a2.18,2.18,0,1,1-4.36,0h1.09A1.08,1.08,0,0,0,160.78,22a1.05,1.05,0,0,0,1.09-1.16c0-1-.89-1-1.84-1.38A1.59,1.59,0,0,1,159,18a1.83,1.83,0,0,1,3.39-.93l-.73.73a.92.92,0,0,0-.85-.57.7.7,0,0,0-.75.71C160,18.52,160.68,18.58,161.57,18.92Z" fill="#1f1a33"/>
      <path d="M121.34,32.21a3.18,3.18,0,0,1,3.34,3.39A3.18,3.18,0,0,1,121.34,39h-2V32.21Zm-.9,1V38h.93a2.16,2.16,0,0,0,2.21-2.36,2.16,2.16,0,0,0-2.21-2.36Z" fill="#1f1a33"/>
      <path d="M126,32.21h4.25v1h-3.17v1.82h1.54v1h-1.54V38h3.23v1H126Z" fill="#1f1a33"/>
      <path d="M134.41,34.92a1.9,1.9,0,0,1,1.38,1.92,2.18,2.18,0,1,1-4.35,0h1.08A1.08,1.08,0,0,0,133.61,38a1.06,1.06,0,0,0,1.1-1.16c0-1-.89-1-1.84-1.38A1.59,1.59,0,0,1,131.81,34a1.82,1.82,0,0,1,3.38-.93l-.72.73a1,1,0,0,0-.86-.57.7.7,0,0,0-.74.71C132.87,34.52,133.52,34.58,134.41,34.92Z" fill="#1f1a33"/>
      <path d="M140.76,32.21H142l2.15,5.23,2.14-5.23h1.2V39h-1.08V34.69L144.59,39h-1l-1.78-4.29V39h-1.08Z" fill="#ea5425"/>
      <path d="M152.41,39a3.45,3.45,0,1,1,3.35-3.44A3.35,3.35,0,0,1,152.41,39Zm0-5.86a2.43,2.43,0,1,0,2.25,2.42A2.28,2.28,0,0,0,152.41,33.18Z" fill="#ea5425"/>
      <path d="M157.12,32.21h1.2l2.18,4.66V32.21h1.08V39h-1.2l-2.17-4.66V39h-1.09Z" fill="#ea5425"/>
      <path d="M165.33,32.21a3.18,3.18,0,0,1,3.34,3.39A3.18,3.18,0,0,1,165.33,39h-2V32.21Zm-.89,1V38h.92a2.16,2.16,0,0,0,2.21-2.36,2.16,2.16,0,0,0-2.21-2.36Z" fill="#ea5425"/>
      <path d="M170,32.21h4.25v1h-3.16v1.82h1.54v1h-1.54V38h3.22v1H170Z" fill="#ea5425"/>
      <path d="M178.4,34.92a1.9,1.9,0,0,1,1.38,1.92,2.18,2.18,0,1,1-4.35,0h1.08a1.09,1.09,0,0,0,1.1,1.16,1.06,1.06,0,0,0,1.09-1.16c0-1-.89-1-1.84-1.38A1.59,1.59,0,0,1,175.8,34a1.82,1.82,0,0,1,3.38-.93l-.72.73a.93.93,0,0,0-.85-.57.7.7,0,0,0-.75.71C176.86,34.52,177.51,34.58,178.4,34.92Z" fill="#ea5425"/>
      <path d="M186.74,32.21a1.94,1.94,0,0,1,.4,3.83L188.68,39h-1.24L186,36.08h-.15V39h-1.09V32.21Zm-.9,2.85h.91a.91.91,0,0,0,0-1.82h-.91Z" fill="#ea5425"/>
      <path d="M194.49,32.21v4.6a2.21,2.21,0,1,1-4.41,0v-4.6h1.08v4.65a1.13,1.13,0,1,0,2.25,0V32.21Z" fill="#ea5425"/>
      <path d="M198.72,34.92a1.9,1.9,0,0,1,1.38,1.92,2.18,2.18,0,1,1-4.35,0h1.08A1.08,1.08,0,0,0,197.92,38a1.06,1.06,0,0,0,1.1-1.16c0-1-.89-1-1.84-1.38A1.59,1.59,0,0,1,196.12,34,1.82,1.82,0,0,1,199.5,33l-.72.73a1,1,0,0,0-.86-.57.7.7,0,0,0-.74.71C197.18,34.52,197.83,34.58,198.72,34.92Z" fill="#ea5425"/>
      <path d="M204.27,34.92a1.9,1.9,0,0,1,1.38,1.92,2.18,2.18,0,1,1-4.35,0h1.08a1.09,1.09,0,0,0,1.1,1.16,1.06,1.06,0,0,0,1.09-1.16c0-1-.89-1-1.84-1.38A1.59,1.59,0,0,1,201.67,34a1.82,1.82,0,0,1,3.38-.93l-.72.73a.94.94,0,0,0-.85-.57.7.7,0,0,0-.75.71C202.73,34.52,203.38,34.58,204.27,34.92Z" fill="#ea5425"/>
      <path d="M207.16,32.21h4.25v1h-3.17v1.82h1.54v1h-1.54V38h3.22v1h-4.3Z" fill="#ea5425"/>
      <path d="M122.34,54a2.26,2.26,0,0,0,2.24-2.42h1.11a3.35,3.35,0,1,1-3.35-3.45,3.26,3.26,0,0,1,2.57,1.24l-.75.76a2.12,2.12,0,0,0-1.82-1,2.43,2.43,0,0,0,0,4.84Z" fill="#ea5425"/>
      <path d="M131.19,55l-.41-1.11h-3l-.4,1.11h-1.14l2.51-6.77h1.08L132.32,55Zm-3.07-2.14h2.3l-1.15-3.18Z" fill="#ea5425"/>
      <path d="M137.58,48.21v4.6a2.21,2.21,0,1,1-4.41,0v-4.6h1.08v4.65a1.13,1.13,0,1,0,2.25,0V48.21Z" fill="#ea5425"/>
      <path d="M142.42,54a2.26,2.26,0,0,0,2.25-2.42h1.1a3.35,3.35,0,1,1-3.35-3.45A3.27,3.27,0,0,1,145,49.39l-.76.76a2.09,2.09,0,0,0-1.82-1,2.43,2.43,0,0,0,0,4.84Z" fill="#ea5425"/>
      <path d="M151.27,55l-.4-1.11h-3L147.44,55h-1.13l2.51-6.77h1.08L152.41,55Zm-3.06-2.14h2.3l-1.15-3.18Z" fill="#ea5425"/>
      <path d="M156.21,50.92a1.89,1.89,0,0,1,1.39,1.92,2.18,2.18,0,1,1-4.35,0h1.08A1.08,1.08,0,0,0,155.42,54a1.06,1.06,0,0,0,1.1-1.16c0-1-.9-1-1.84-1.38A1.6,1.6,0,0,1,153.61,50,1.83,1.83,0,0,1,157,49l-.73.73a.92.92,0,0,0-.85-.57.7.7,0,0,0-.74.71C154.68,50.52,155.33,50.58,156.21,50.92Z" fill="#ea5425"/>
      <path d="M161.9,49.24h-1V54h1v1h-3.13V54h1V49.24h-1v-1h3.13Z" fill="#ea5425"/>
      <path d="M163.3,48.21h4.25v1h-3.16v1.81h1.53v1h-1.53V54h3.22v1H163.3Z" fill="#ea5425"/>
      <path d="M169,48.21h1.2l2.17,4.66V48.21h1.09V55h-1.2l-2.18-4.66V55H169Z" fill="#ea5425"/>
      <path d="M119.36,64.21h4.25v1h-3.17v1.81H122v1h-1.54V70h3.22v1h-4.3Z" fill="#1f1a33"/>
      <path d="M124.79,64.21H129v1h-1.54V71h-1.08V65.24h-1.54Z" fill="#1f1a33"/>
      <path d="M136.57,70a2.26,2.26,0,0,0,2.25-2.42h1.1a3.35,3.35,0,1,1-3.35-3.45,3.27,3.27,0,0,1,2.58,1.24l-.76.76a2.09,2.09,0,0,0-1.82-1,2.43,2.43,0,0,0,0,4.84Z" fill="#ea5425"/>
      <path d="M141.28,64.21h4.25v1h-3.16v1.81h1.53v1h-1.53V70h3.22v1h-4.31Z" fill="#ea5425"/>
      <path d="M147,64.21h1.2l2.17,4.66V64.21h1.09V71h-1.2l-2.18-4.66V71H147Z" fill="#ea5425"/>
      <path d="M152.73,64.21h4.16v1h-1.54V71h-1.08V65.24h-1.54Z" fill="#ea5425"/>
      <path d="M160.38,64.21a1.94,1.94,0,0,1,.41,3.83L162.33,71h-1.24l-1.45-2.9h-.16V71H158.4V64.21Zm-.9,2.84h.91a.91.91,0,0,0,0-1.81h-.91Z" fill="#ea5425"/>
      <path d="M163.79,64.21H168v1h-3.16v1.81h1.54v1h-1.54V70h3.22v1h-4.31Z" fill="#ea5425"/>
      <path d="M119.36,80.21h4.25v1h-3.17v1.81H122v1h-1.54V86h3.22v1h-4.3Z" fill="#ea5425"/>
      <path d="M129.88,80.21v4.6a2.21,2.21,0,1,1-4.41,0v-4.6h1.08v4.65a1.13,1.13,0,1,0,2.25,0V80.21Z" fill="#ea5425"/>
      <path d="M133.73,80.21a1.94,1.94,0,0,1,.41,3.83L135.67,87h-1.23L133,84.08h-.16V87h-1.08V80.21Zm-.9,2.84h.91a.91.91,0,0,0,0-1.81h-.91Z" fill="#ea5425"/>
      <path d="M140.35,87a3.45,3.45,0,1,1,3.35-3.44A3.35,3.35,0,0,1,140.35,87Zm0-5.86a2.43,2.43,0,1,0,2.25,2.42A2.28,2.28,0,0,0,140.35,81.18Z" fill="#ea5425"/>
      <path d="M145.26,80.21h2.25a2.15,2.15,0,0,1,0,4.3h-1.17V87h-1.08Zm1.08,3.27h1.17a1.12,1.12,0,0,0,0-2.24h-1.17Z" fill="#ea5425"/>
      <path d="M151.3,80.21h4.25v1h-3.17v1.81h1.54v1h-1.54V86h3.23v1H151.3Zm1-1.61,2.33-.63.26.94-2.33.62Z" fill="#ea5425"/>
      <path d="M157.22,80.21h4.25v1H158.3v1.81h1.54v1H158.3V86h3.22v1h-4.3Z" fill="#ea5425"/>
      <path d="M163.14,80.21h1.2l2.17,4.66V80.21h1.09V87h-1.2l-2.18-4.66V87h-1.08Z" fill="#ea5425"/>
    </g>
    <path d="M9,34.17a5.22,5.22,0,0,1,5.52,5.49A5.25,5.25,0,0,1,10.11,45l4.37,8.35H11L6.85,45.15H6.41v8.24H3.33V34.17ZM6.41,42.24H9a2.34,2.34,0,0,0,2.47-2.58A2.34,2.34,0,0,0,9,37.08H6.41Z" fill="#1f1a33"/>
    <path d="M15.87,9.94c0,3.88-2.61,6.7-6.2,6.7s-6.2-2.88-6.2-6.7,2.67-6.69,6.2-6.69a5.81,5.81,0,0,1,5,2.67l.12.17,2.39-2.4-.1-.11A9.34,9.34,0,0,0,9.67,0,9.71,9.71,0,0,0,0,9.94a9.67,9.67,0,1,0,19.34,0V9.77H15.87Z" fill="#ea5425"/>
    <path d="M49.77,43.15A7,7,0,0,1,48,48a6,6,0,0,1-4.46,1.89c-3.53,0-6.2-2.88-6.2-6.69s2.67-6.7,6.2-6.7a5.84,5.84,0,0,1,5,2.67l.11.17,2.4-2.39-.1-.12a9.34,9.34,0,0,0-7.44-3.58,9.71,9.71,0,0,0-9.67,9.95,9.67,9.67,0,1,0,19.34,0V43H49.77Z" fill="#ea5425"/>
    <path d="M85,76.93v.17c0,3.88-2.6,6.69-6.2,6.69s-6.2-2.87-6.2-6.69,2.67-6.69,6.2-6.69a5.84,5.84,0,0,1,5,2.67l.11.17,2.4-2.4-.1-.11a9.34,9.34,0,0,0-7.44-3.58,9.7,9.7,0,0,0-9.66,9.94,10,10,0,0,0,2.75,7A9.47,9.47,0,0,0,78.82,87a9.69,9.69,0,0,0,9.67-9.94v-.17Z" fill="#ea5425"/>
    <rect x="-0.89" y="76.32" width="28.85" height="0.71" transform="translate(-50.21 31.96) rotate(-44.94)" fill="#ea5425"/>
    <rect x="63.12" y="12.31" width="28.85" height="0.71" transform="translate(13.76 58.54) rotate(-45)" fill="#ea5425"/>
    <path d="M37.45.29H49.53V3.21h-9V8.38h4.38V11.3H40.53v5.34H49.7v2.92H37.45Z" fill="#1f1a33"/>
    <path d="M37.45,67.63H49.53v2.92h-9v5.17h4.38v2.92H40.53V84H49.7V86.9H37.45Z" fill="#1f1a33"/>
  </g>
</svg>
